<?xml version="1.0" encoding="UTF-8" standalone="no"?>
<svg
   xmlns:dc="http://purl.org/dc/elements/1.1/"
   xmlns:cc="http://creativecommons.org/ns#"
   xmlns:rdf="http://www.w3.org/1999/02/22-rdf-syntax-ns#"
   xmlns:svg="http://www.w3.org/2000/svg"
   xmlns="http://www.w3.org/2000/svg"
   xmlns:sodipodi="http://sodipodi.sourceforge.net/DTD/sodipodi-0.dtd"
   xmlns:inkscape="http://www.inkscape.org/namespaces/inkscape"
   inkscape:export-ydpi="96"
   inkscape:export-xdpi="96"
   inkscape:export-filename="F:\Eigene Dateien\Downloads\image.png"
   inkscape:version="1.0 (4035a4fb49, 2020-05-01)"
   sodipodi:docname="FriendSymbol.svg"
   id="svg4"
   version="1.1"
   viewBox="0 0 64 64">
  <metadata
     id="metadata10">
    <rdf:RDF>
      <cc:Work
         rdf:about="">
        <dc:format>image/svg+xml</dc:format>
        <dc:type
           rdf:resource="http://purl.org/dc/dcmitype/StillImage" />
        <dc:title></dc:title>
      </cc:Work>
    </rdf:RDF>
  </metadata>
  <defs
     id="defs8">
    <filter
       height="1.005859"
       y="-0.0029295045"
       width="1.0061479"
       x="-0.003073972"
       id="filter979"
       style="color-interpolation-filters:sRGB"
       inkscape:collect="always">
      <feGaussianBlur
         id="feGaussianBlur981"
         stdDeviation="0.060834823"
         inkscape:collect="always" />
    </filter>
  </defs>
  <sodipodi:namedview
     inkscape:current-layer="svg4"
     inkscape:window-maximized="1"
     inkscape:window-y="-8"
     inkscape:window-x="2552"
     inkscape:cy="36.602669"
     inkscape:cx="47.391626"
     inkscape:zoom="3.9375"
     showborder="false"
     showgrid="false"
     id="namedview6"
     inkscape:window-height="1377"
     inkscape:window-width="2560"
     inkscape:pageshadow="2"
     inkscape:pageopacity="0"
     guidetolerance="10"
     gridtolerance="10"
     objecttolerance="10"
     borderopacity="1"
     bordercolor="#666666"
     pagecolor="#ffffff" />
  <path
     id="path837"
     d="M 0.06628695,16 V 0.066287 H 16 31.933713 V 16 31.933713 H 16 0.06628695 Z"
     style="opacity:1;vector-effect:none;fill:#053a6c;fill-opacity:1;stroke:#fbffff;stroke-width:0.132574;stroke-linecap:round;stroke-linejoin:round;stroke-miterlimit:4;stroke-dasharray:none;stroke-opacity:1;paint-order:normal" />
  <path
     transform="scale(0.5)"
     style="fill:#00aeff;fill-opacity:1;stroke-width:1.1343;filter:url(#filter979)"
     id="path2"
     d="m 43.024034,40.700468 v -5.791607 c 0,-3.113599 -2.56913,-5.647566 -5.726954,-5.647566 H 13.97861 c -3.157824,0 -5.7269684,2.532838 -5.7269684,5.647566 v 5.791607 a 1.7014153,1.7014153 0 0 0 1.173982,1.617487 c 4.2626064,1.388348 5.9231884,3.805492 5.9231884,8.62277 v 4.27736 a 1.7014153,1.7014153 0 0 0 1.701415,1.701415 h 17.176359 a 1.7014153,1.7014153 0 0 0 1.701421,-1.701415 v -4.27736 c 0,-4.817278 1.660573,-7.234422 5.92206,-8.62277 a 1.7014153,1.7014153 0 0 0 1.173967,-1.617487 z M 25.640109,24.684481 c 4.935243,0 8.949446,-3.94728 8.949446,-8.800864 0,-4.854702 -4.015346,-8.8031171 -8.949446,-8.8031171 -4.935235,0 -8.950581,3.9484151 -8.950581,8.8031171 0.001,4.853584 4.015346,8.800864 8.950581,8.800864 z m 18.269805,-8.800864 c 0,2.934387 -2.422816,5.318631 -5.42185,5.385554 a 14.061626,14.061626 0 0 1 -1.673057,2.887868 h 0.389062 c 0.965266,0 1.896506,0.13838 2.788046,0.374309 4.159397,-0.755424 7.320629,-4.342013 7.320629,-8.647731 0,-4.854702 -4.015341,-8.8031171 -8.949446,-8.8031171 -0.62045,0 -1.226152,0.06243 -1.811443,0.181481 0.787186,0.982284 1.450732,2.0643844 1.948684,3.2349641 2.994498,0.07374 5.409375,2.455704 5.409375,5.386672 z m 6.111475,13.377678 h -3.61834 c 0.646543,1.033318 1.127478,2.17667 1.39063,3.40283 h 2.22771 c 1.281731,0 2.325277,1.007239 2.325277,2.244736 v 4.599485 c -1.982719,0.798529 -3.502652,1.876102 -4.634658,3.247433 a 6.7852454,6.7852454 0 0 1 -1.542625,2.607705 c -0.617042,1.572111 -0.919894,3.41531 -0.919894,5.576112 v 2.575934 h -4.311392 v 1.701426 c 0,0.588679 -0.08281,1.156956 -0.223443,1.701409 h 7.936527 v -5.978769 c 0,-4.817272 1.660588,-7.234422 5.92206,-8.622779 l 1.175117,-0.382253 v -7.026847 c 10e-4,-3.112455 -2.568002,-5.646422 -5.726969,-5.646422 z" />
</svg>
